<svg width="460" height="462" viewBox="0 0 460 462" fill="none" xmlns="http://www.w3.org/2000/svg">
<g clip-path="url(#clip0_369_14339)">
<path d="M45.0311 388.835L40.9919 372.887C33.8302 369.849 26.5031 367.217 19.0453 365.004L18.5355 372.416L16.4678 364.25C7.21892 361.603 0.926758 360.439 0.926758 360.439C0.926758 360.439 9.42386 392.795 27.2518 417.531L48.0229 421.184L31.8864 423.513C34.129 426.214 36.539 428.772 39.1022 431.17C65.0338 455.268 93.9172 466.324 103.614 455.864C113.312 445.405 100.151 417.392 74.2193 393.297C66.1803 385.827 56.0816 379.832 45.9725 375.112L45.0311 388.835Z" fill="#F2F2F2"/>
<path d="M83.4442 371.512L88.2211 355.77C83.6596 349.463 78.7465 343.418 73.5051 337.665L69.2417 343.746L71.6874 335.686C65.1354 328.636 60.3505 324.383 60.3505 324.383C60.3505 324.383 50.9206 356.479 53.4081 386.879L69.3033 400.755L54.2843 394.398C54.8099 397.872 55.5531 401.309 56.5096 404.689C66.2665 438.737 85.2834 463.148 98.9847 459.213C112.686 455.277 115.884 424.486 106.127 390.438C103.103 379.883 97.5525 369.525 91.3354 360.255L83.4442 371.512Z" fill="#F2F2F2"/>
<path d="M320.955 109.986H318.435V40.8843C318.435 35.632 317.402 30.4311 315.394 25.5786C313.386 20.7262 310.443 16.3171 306.734 12.6031C303.024 8.88919 298.62 5.94313 293.773 3.93316C288.926 1.92319 283.731 0.888672 278.484 0.888672H132.244C121.648 0.888672 111.486 5.10249 103.994 12.6031C96.502 20.1038 92.293 30.2768 92.293 40.8843V419.987C92.293 425.239 93.3263 430.44 95.334 435.293C97.3417 440.145 100.284 444.554 103.994 448.268C107.704 451.982 112.108 454.928 116.955 456.938C121.802 458.948 126.997 459.983 132.244 459.983H278.484C289.08 459.983 299.241 455.769 306.733 448.268C314.225 440.767 318.434 430.594 318.434 419.987V159.174H320.954L320.955 109.986Z" fill="#E6E6E6"/>
<path d="M280.096 11.2903H261.009C261.887 13.4451 262.222 15.7829 261.984 18.0979C261.747 20.4129 260.945 22.6339 259.648 24.5653C258.351 26.4967 256.6 28.0792 254.549 29.1733C252.497 30.2675 250.208 30.8397 247.884 30.8397H164.104C161.78 30.8395 159.491 30.2671 157.44 29.1729C155.388 28.0787 153.637 26.4961 152.341 24.5648C151.044 22.6334 150.242 20.4125 150.005 18.0976C149.767 15.7827 150.102 13.445 150.98 11.2903H133.151C125.238 11.2903 117.65 14.4371 112.055 20.0385C106.46 25.6399 103.316 33.2371 103.316 41.1586V419.711C103.316 427.632 106.46 435.23 112.055 440.831C117.65 446.432 125.238 449.579 133.151 449.579H280.096C288.009 449.579 295.598 446.432 301.193 440.831C306.788 435.23 309.931 427.632 309.931 419.711V41.158C309.931 33.2365 306.788 25.6396 301.192 20.0383C295.597 14.437 288.009 11.2903 280.096 11.2903Z" fill="white"/>
<path d="M187.899 162.086C187.899 159.44 188.595 156.841 189.916 154.549C191.238 152.258 193.14 150.356 195.43 149.034C193.141 147.711 190.545 147.014 187.902 147.014C185.259 147.013 182.663 147.71 180.374 149.032C178.085 150.355 176.184 152.258 174.863 154.549C173.541 156.84 172.846 159.439 172.846 162.085C172.846 164.731 173.541 167.33 174.863 169.622C176.184 171.913 178.085 173.816 180.374 175.138C182.663 176.461 185.259 177.157 187.902 177.157C190.545 177.157 193.141 176.46 195.43 175.137C193.14 173.815 191.239 171.913 189.917 169.622C188.595 167.331 187.899 164.732 187.899 162.086Z" fill="#CCCCCC"/>
<path d="M206.825 162.086C206.825 159.44 207.52 156.841 208.842 154.549C210.164 152.258 212.066 150.356 214.355 149.034C212.067 147.711 209.471 147.014 206.828 147.014C204.185 147.013 201.589 147.71 199.3 149.032C197.011 150.355 195.11 152.258 193.789 154.549C192.467 156.84 191.771 159.439 191.771 162.085C191.771 164.731 192.467 167.33 193.789 169.622C195.11 171.913 197.011 173.816 199.3 175.138C201.589 176.461 204.185 177.157 206.828 177.157C209.471 177.157 212.067 176.46 214.355 175.137C212.066 173.815 210.164 171.913 208.842 169.622C207.521 167.331 206.825 164.732 206.825 162.086Z" fill="#CCCCCC"/>
<path d="M225.32 177.157C233.635 177.157 240.375 170.409 240.375 162.086C240.375 153.762 233.635 147.014 225.32 147.014C217.006 147.014 210.266 153.762 210.266 162.086C210.266 170.409 217.006 177.157 225.32 177.157Z" fill="#4C9A2A"/>
<path d="M250.481 209.16H162.739C161.903 209.159 161.102 208.827 160.512 208.235C159.921 207.644 159.589 206.842 159.588 206.006V118.165C159.589 117.329 159.921 116.527 160.512 115.936C161.102 115.345 161.903 115.012 162.739 115.011H250.481C251.316 115.012 252.117 115.345 252.707 115.936C253.298 116.527 253.63 117.329 253.631 118.165V206.006C253.63 206.842 253.298 207.644 252.707 208.235C252.117 208.827 251.316 209.159 250.481 209.16ZM162.739 116.273C162.237 116.274 161.757 116.473 161.402 116.828C161.048 117.183 160.849 117.664 160.848 118.166V206.007C160.849 206.508 161.048 206.99 161.402 207.344C161.757 207.699 162.237 207.899 162.739 207.899H250.481C250.982 207.899 251.462 207.699 251.817 207.344C252.171 206.99 252.37 206.508 252.371 206.007V118.166C252.37 117.664 252.171 117.183 251.817 116.828C251.462 116.473 250.982 116.274 250.481 116.273H162.739Z" fill="#CCCCCC"/>
<path d="M270.073 276.494H135.503V277.756H270.073V276.494Z" fill="#CCCCCC"/>
<path d="M139.753 268.617C142.1 268.617 144.002 266.712 144.002 264.362C144.002 262.012 142.1 260.107 139.753 260.107C137.406 260.107 135.503 262.012 135.503 264.362C135.503 266.712 137.406 268.617 139.753 268.617Z" fill="#4C9A2A"/>
<path d="M270.073 319.038H135.503V320.3H270.073V319.038Z" fill="#CCCCCC"/>
<path d="M139.753 311.161C142.1 311.161 144.002 309.256 144.002 306.906C144.002 304.556 142.1 302.651 139.753 302.651C137.406 302.651 135.503 304.556 135.503 306.906C135.503 309.256 137.406 311.161 139.753 311.161Z" fill="#4C9A2A"/>
<path d="M267.61 367.484H225.082C224.348 367.484 223.643 367.191 223.124 366.671C222.605 366.151 222.312 365.446 222.312 364.711V349.788C222.312 349.053 222.605 348.348 223.124 347.828C223.643 347.307 224.348 347.015 225.082 347.014H267.61C268.345 347.015 269.049 347.307 269.568 347.828C270.088 348.348 270.38 349.053 270.381 349.788V364.711C270.38 365.446 270.088 366.151 269.568 366.671C269.049 367.191 268.345 367.484 267.61 367.484Z" fill="#4C9A2A"/>
<path d="M153.615 268.617C155.962 268.617 157.865 266.712 157.865 264.362C157.865 262.012 155.962 260.107 153.615 260.107C151.268 260.107 149.365 262.012 149.365 264.362C149.365 266.712 151.268 268.617 153.615 268.617Z" fill="#4C9A2A"/>
<path d="M167.477 268.617C169.824 268.617 171.727 266.712 171.727 264.362C171.727 262.012 169.824 260.107 167.477 260.107C165.13 260.107 163.228 262.012 163.228 264.362C163.228 266.712 165.13 268.617 167.477 268.617Z" fill="#4C9A2A"/>
<path d="M153.615 311.161C155.962 311.161 157.865 309.256 157.865 306.906C157.865 304.556 155.962 302.651 153.615 302.651C151.268 302.651 149.365 304.556 149.365 306.906C149.365 309.256 151.268 311.161 153.615 311.161Z" fill="#4C9A2A"/>
<path d="M167.477 311.161C169.824 311.161 171.727 309.256 171.727 306.906C171.727 304.556 169.824 302.651 167.477 302.651C165.13 302.651 163.228 304.556 163.228 306.906C163.228 309.256 165.13 311.161 167.477 311.161Z" fill="#4C9A2A"/>
<path d="M457.841 461.407H15.754C14.8076 461.407 14.041 461.07 14.041 460.656C14.041 460.242 14.8076 459.905 15.754 459.905H457.841C458.787 459.905 459.554 460.241 459.554 460.656C459.554 461.071 458.787 461.407 457.841 461.407Z" fill="#3F3D56"/>
<path d="M348.617 302.606C348.919 302.744 349.209 302.907 349.485 303.091L377.102 291.291L378.088 284.008L389.123 283.94L388.471 300.644L352.02 310.295C351.943 310.549 351.851 310.797 351.744 311.04C351.217 312.166 350.37 313.11 349.308 313.756C348.247 314.401 347.018 314.717 345.777 314.666C344.537 314.615 343.339 314.197 342.334 313.466C341.329 312.736 340.563 311.724 340.13 310.558C339.698 309.393 339.619 308.125 339.904 306.915C340.189 305.705 340.825 304.606 341.732 303.757C342.638 302.907 343.776 302.344 345.001 302.14C346.225 301.935 347.484 302.097 348.617 302.606Z" fill="#FFB8B8"/>
<path d="M393.136 453.976H385.587L381.996 424.826L393.137 424.827L393.136 453.976Z" fill="#FFB8B8"/>
<path d="M380.196 451.816H394.754V460.993H371.029C371.029 458.559 371.995 456.225 373.714 454.504C375.433 452.783 377.765 451.816 380.196 451.816Z" fill="#2F2E41"/>
<path d="M422.494 451.84L414.982 452.581L408.553 423.925L419.64 422.831L422.494 451.84Z" fill="#FFB8B8"/>
<path d="M409.404 450.961L423.893 449.533L424.791 458.665L401.181 460.993C401.063 459.794 401.182 458.583 401.531 457.43C401.881 456.277 402.454 455.204 403.217 454.272C403.981 453.341 404.92 452.569 405.982 452.001C407.044 451.433 408.206 451.079 409.404 450.961Z" fill="#2F2E41"/>
<path d="M395.237 253.09C403.59 253.09 410.36 246.312 410.36 237.95C410.36 229.589 403.59 222.81 395.237 222.81C386.885 222.81 380.114 229.589 380.114 237.95C380.114 246.312 386.885 253.09 395.237 253.09Z" fill="#FFB8B8"/>
<path d="M383.9 448.08C383.251 448.082 382.623 447.854 382.125 447.437C381.628 447.02 381.294 446.441 381.182 445.801C377.274 424.087 364.503 353.088 364.197 351.121C364.19 351.076 364.187 351.03 364.188 350.984V345.69C364.187 345.498 364.247 345.309 364.359 345.153L366.047 342.787C366.127 342.673 366.232 342.579 366.354 342.513C366.476 342.446 366.612 342.408 366.751 342.402C376.37 341.95 407.872 340.627 409.394 342.531C410.923 344.444 410.383 350.24 410.259 351.383L410.265 351.502L424.418 442.114C424.528 442.836 424.35 443.574 423.922 444.166C423.494 444.758 422.85 445.158 422.13 445.279L413.29 446.737C412.632 446.843 411.958 446.709 411.39 446.359C410.822 446.009 410.398 445.466 410.196 444.83C407.462 436.084 398.295 406.662 395.117 395.278C395.097 395.206 395.052 395.143 394.99 395.102C394.927 395.061 394.852 395.044 394.778 395.055C394.704 395.065 394.636 395.102 394.588 395.159C394.539 395.216 394.513 395.289 394.514 395.363C394.672 406.216 395.056 433.904 395.188 443.468L395.203 444.498C395.209 445.195 394.953 445.869 394.486 446.387C394.02 446.904 393.376 447.228 392.683 447.294L384.159 448.069C384.072 448.077 383.985 448.08 383.9 448.08Z" fill="#2F2E41"/>
<path d="M385.639 259.044C383 260.614 381.421 263.501 380.515 266.438C378.837 271.875 377.827 277.497 377.507 283.18L376.549 300.193L364.693 345.297C374.969 354.001 380.897 352.023 394.729 344.903C408.562 337.783 410.142 347.277 410.142 347.277L412.908 308.899L416.86 266.962C415.973 265.893 414.969 264.927 413.867 264.081C410.214 261.238 405.964 259.261 401.437 258.3C396.911 257.34 392.225 257.421 387.734 258.536L385.639 259.044Z" fill="#4C9A2A"/>
<path d="M381.789 311.715C382.107 311.835 382.416 311.98 382.712 312.149L410.019 298.466L410.472 291.053L421.736 290.276L422.34 307.174L385.848 319.255C385.55 320.535 384.87 321.693 383.899 322.576C382.927 323.459 381.71 324.026 380.409 324.199C379.108 324.373 377.786 324.146 376.617 323.549C375.448 322.952 374.488 322.013 373.866 320.856C373.243 319.7 372.987 318.381 373.131 317.075C373.275 315.769 373.813 314.538 374.673 313.546C375.533 312.554 376.675 311.847 377.946 311.52C379.217 311.193 380.557 311.261 381.789 311.715Z" fill="#FFB8B8"/>
<path d="M416.664 267.154C423.382 269.528 424.566 295.247 424.566 295.247C416.662 290.895 407.176 298.017 407.176 298.017C407.176 298.017 405.2 291.291 402.829 282.586C402.113 280.138 402.028 277.548 402.58 275.058C403.133 272.567 404.306 270.257 405.991 268.343C405.991 268.343 409.945 264.779 416.664 267.154Z" fill="#4C9A2A"/>
<path d="M408.797 241.954C406.913 240.445 404.342 243.188 404.342 243.188L402.835 229.606C402.835 229.606 393.414 230.736 387.384 229.229C381.354 227.722 380.412 234.7 380.412 234.7C380.102 231.881 380.038 229.041 380.224 226.211C380.601 222.816 385.5 219.42 394.167 217.156C402.835 214.892 407.357 224.702 407.357 224.702C413.387 227.72 410.681 243.464 408.797 241.954Z" fill="#2F2E41"/>
</g>
<defs>
<clipPath id="clip0_369_14339">
<rect width="458.627" height="460.519" fill="white" transform="translate(0.926758 0.888672)"/>
</clipPath>
</defs>
</svg>
